# xmcd
#
# Track frame offsets: 
#        150
#        20540
#        42017
#        63347
#        81767
#        99980
#        118665
#        135357
#        153212
#        174835
#        192952
#        211140
#
# Disc length: 3049 seconds
#
# Revision: 0
# Processed by: cddbd v1.5.2PL0 Copyright (c) Steve Scherf et al.
# Submitted via: ExactAudioCopy v1.0b3
#
DISCID=8b0be70c
DTITLE=美空ひばり - 人恋酒 最新演歌名曲名唱集 COCA-70239
DYEAR=1900
DGENRE=JPop
TTITLE0=人恋酒 
TTITLE1=哀愁の高山
TTITLE2=風雪ながれ旅
TTITLE3=夫婦舟
TTITLE4=ふたり酒 
TTITLE5=舟唄
TTITLE6=みちのくひとり旅
TTITLE7=大阪しぐれ 
TTITLE8=奥飛騨慕情
TTITLE9=人生かくれんぼ
TTITLE10=他人酒
TTITLE11=おんなの涙 
EXTD=
EXTT0=
EXTT1=
EXTT2=
EXTT3=
EXTT4=
EXTT5=
EXTT6=
EXTT7=
EXTT8=
EXTT9=
EXTT10=
EXTT11=
PLAYORDER=
